<svg xmlns="http://www.w3.org/2000/svg" width="3892" height="1619" viewBox="0 0 3892 1619" fill="none">
<path d="M2324 1602.5V1079C2456.18 1067.08 2531.44 1063.27 2667.5 1061H2829.5V1267H2547V1602.5H2324Z" fill="#D3FB00"/>
<path fill-rule="evenodd" clip-rule="evenodd" d="M1783.35 1364.53H2252.35C2247.25 1273.6 2242.06 1250.82 2231.35 1227.53C2210.95 1172.82 2192.1 1147.25 2148.35 1108.53C2107.28 1078.39 2082.67 1065.59 2035.35 1051.53C1994.96 1040.48 1972.42 1037.31 1932.35 1035.53C1912.43 1034.78 1901.26 1034.87 1881.35 1035.53C1833.16 1038.56 1807 1042.64 1762.35 1055.53C1730.13 1066.23 1712.88 1073.98 1683.35 1090.53C1643.15 1118.06 1624.1 1135.68 1597.35 1171.53C1571.64 1215.04 1562.12 1239.9 1554.35 1285.53C1551.11 1318.63 1551.32 1336.28 1554.35 1366.53C1563.49 1416.39 1573.98 1443.44 1605.35 1489.53C1634.31 1525.22 1656.08 1541.94 1700.35 1568.53C1753.28 1595.26 1788.59 1606.89 1863.85 1616.53C1911.3 1619.48 1937.9 1619.07 1985.35 1616.53C2050.63 1609.52 2087.21 1602.95 2152.35 1584.53C2186.38 1574.5 2203.77 1567.71 2230.35 1552.53L2132.35 1383.03C2066.49 1410 2027.17 1419.52 1952.35 1425.53H1910.35C1879.48 1425.65 1862.65 1422.51 1833.35 1411.53C1801.98 1397.08 1793.23 1386.06 1783.35 1364.53ZM2025.35 1262.53H1790.35C1800.21 1243.29 1809.03 1233.56 1835.35 1219.53C1851.04 1211.91 1862.82 1209.61 1885.35 1206.53H1924.35C1944.51 1207.82 1955.91 1210.38 1976.35 1218.53C2002.07 1230.21 2012.34 1240.22 2025.35 1262.53Z" fill="#D3FB00"/>
<path fill-rule="evenodd" clip-rule="evenodd" d="M1336 871L1139.5 1362L947.5 998C953.578 964.101 955.914 943.292 957 901V894C957.293 871.162 956.528 858.73 954 837C950.148 798.883 946.296 779.33 938 746C924.414 697.293 918.018 678.603 908 655C890.744 612.921 879.6 591.056 858 554C827.304 501.962 806.307 473.586 764 424C709.016 362.116 676.319 330.375 614 280C532.588 215.382 485.6 183.431 399 135C346.435 108.873 318.162 94.2585 277 82L221 242C265.152 258.54 289.582 269.569 332.5 293C384.809 323.081 412.571 341.318 459.5 376C509.662 413.486 536.635 436.395 582.5 480.5C624.634 521.03 646.831 546.672 683.5 598.5C728.767 664.293 747.799 704.65 771 783.5C686.699 720.266 636.951 694.478 544 664C479.99 645.967 444.075 639.42 380 635C356.18 633.351 342.822 633.203 319 635C271.4 637.172 246.319 640.248 207 652C170.89 665.046 154.644 675.445 133 700C122.211 714.167 117.4 722.808 112 740C106.105 756.148 103.967 771.532 102 809C102.745 837.371 103.996 853.462 110 883C117.422 911.473 122.311 927.451 135 956C150.412 987.727 160.585 1004.51 181 1033C203.063 1060.22 214.663 1072.88 234 1091C264.473 1117.57 282.359 1131.15 316 1152.5C368.63 1182.12 396.136 1195.48 441 1212.5C489.71 1229.1 518.451 1236.64 573 1246C616.979 1251.14 642.433 1251.64 690 1246C741.932 1236.36 766.887 1227.66 805 1207C814.721 1202.12 820.194 1198.73 830 1191H832L1005 1602H1274L1582 871H1336ZM759 1022V1019C740.625 992.199 728.822 978.366 705.5 955.5C681.997 930.037 666.375 917.296 635.5 896.5C601.942 872.981 584.425 863.539 554.5 850.5C505.172 827.899 474.255 818.314 411 809C363.637 803.507 337.239 802.161 291 809C280.1 811.051 276.654 814.359 275 824C274.08 835.751 275.222 843.137 280 857.5C288.463 884.33 295.102 899.484 315 927C342.033 960.623 359.763 977.402 398 1002C430.692 1023.36 450.378 1033.32 488 1047C530.39 1063.48 552.831 1070.04 590 1076C622.416 1080.54 640.584 1080.9 673 1076C693.611 1071.76 704.821 1067.8 724 1057C740.594 1047.06 748.456 1039.64 759 1022Z" fill="#D3FB00"/>
<path fill-rule="evenodd" clip-rule="evenodd" d="M3365.38 1042.5C3295.85 1033.43 3256.89 1032.32 3187.38 1036.5C3131.45 1042.67 3101.83 1049.16 3053.38 1068.5C3014.46 1086.47 2994.77 1098.55 2965.38 1125.5C2946.16 1144.17 2937.3 1154.78 2925.38 1174C2912.01 1196.49 2905.92 1209.37 2898.38 1233C2889.89 1260.47 2886.98 1277.56 2885.38 1312C2884.92 1321.72 2884.82 1327.71 2885.38 1341C2887.18 1369.4 2889.55 1385.11 2897.38 1412.5C2908.66 1445.61 2916.87 1462.71 2936.38 1489.5C2955.8 1514.63 2968.33 1527.01 2993.38 1546.5C3027.26 1569.98 3047.35 1580.01 3085.38 1593.5C3126.18 1606.82 3150.15 1611.58 3194.38 1616.5C3244.04 1619.83 3272.61 1619.84 3324.88 1616.5C3363.63 1613.08 3385.61 1610.11 3425.38 1602.5C3454.64 1597.04 3471.05 1593.26 3500.38 1585.5L3588.38 1562.5V871H3365.38V1042.5ZM3365.38 1406V1242C3348.38 1238.38 3337.46 1237.06 3316.38 1235.5C3271.56 1231.84 3247.39 1231.21 3207.88 1235.5C3181.66 1239.24 3168.14 1242.9 3147.88 1254.5C3130.16 1264.86 3122.57 1273.05 3114.38 1293C3106.25 1318.1 3106.64 1332.37 3114.38 1358C3120.23 1373.83 3125.58 1381.84 3141.38 1393.5C3167.97 1411.08 3185.64 1416.34 3220.88 1419.5C3245.68 1422.11 3259.58 1421.99 3284.38 1419.5C3318.98 1416.85 3336.95 1414.11 3365.38 1406Z" fill="#D3FB00"/>
<path d="M3668 1603H3892V1061H3668V1603Z" fill="#D3FB00"/>
<ellipse cx="3780.5" cy="914.5" rx="102.5" ry="91.5" fill="#D3FB00"/>
<ellipse cx="103.5" cy="91.5" rx="103.5" ry="91.5" fill="#D3FB00"/>
</svg>